<?xml version="1.0" standalone="no"?>
<!DOCTYPE svg PUBLIC "-//W3C//DTD SVG 20010904//EN"
 "http://www.w3.org/TR/2001/REC-SVG-20010904/DTD/svg10.dtd">
<svg xmlns="http://www.w3.org/2000/svg" version="1.0" width="1280.000000pt" height="942.000000pt" viewBox="0 0 1280.000000 942.000000" preserveAspectRatio="xMidYMid meet">

<g transform="translate(0.000000,942.000000) scale(0.100000,-0.100000)" fill="#729fcf" stroke="none">
<path d="M6045 9414 c-602 -35 -926 -75 -1416 -174 -1619 -328 -3199 -1169 -4339 -2310 -170 -170 -212 -229 -257 -365 -23 -71 -26 -96 -26 -215 0 -119 3 -144 26 -215 38 -115 91 -198 182 -290 137 -138 304 -207 498 -207 112 1 164 10 261 46 103 39 164 85 354 263 447 421 822 707 1303 996 937 563 1941 892 3081 1009 293 30 1029 33 1323 5 1148 -109 2188 -445 3134 -1014 482 -290 858 -578 1306 -999 188 -177 247 -221 353 -260 95 -36 147 -45 259 -46 194 0 361 69 498 207 91 92 144 175 182 290 23 71 26 96 26 215 0 119 -3 144 -26 215 -45 136 -87 195 -257 365 -603 604 -1378 1158 -2179 1559 -1030 516 -2088 810 -3266 906 -177 15 -875 28 -1020 19z"/>
<path d="M5945 6800 c-405 -33 -810 -101 -1177 -200 -1003 -271 -1965 -821 -2679 -1530 -154 -152 -170 -172 -207 -250 -183 -381 4 -819 403 -946 169 -54 333 -40 501 41 78 38 109 61 220 166 418 395 777 647 1249 879 1233 606 2656 661 3945 153 423 -167 862 -421 1217 -705 150 -120 162 -131 369 -323 207 -191 316 -240 534 -239 98 1 127 5 195 28 119 41 181 80 275 175 137 138 194 276 194 471 0 121 -22 208 -82 325 -76 147 -516 546 -917 830 -877 623 -1860 990 -2970 1111 -174 19 -890 28 -1070 14z"/>
<path d="M6065 4360 c-784 -76 -1486 -366 -2082 -861 -159 -132 -319 -296 -360 -369 -212 -372 -32 -843 373 -976 80 -26 102 -29 214 -29 111 1 134 4 205 29 112 39 179 82 302 197 408 380 885 601 1420 659 166 18 515 8 668 -19 389 -69 740 -219 1041 -444 54 -40 159 -128 232 -194 189 -171 291 -220 477 -230 275 -14 519 128 640 372 46 93 68 190 68 300 0 111 -21 194 -74 305 -37 75 -57 100 -168 210 -570 565 -1315 922 -2164 1036 -132 18 -656 27 -792 14z"/>

</g>
</svg>
